<svg width="20" height="24" viewBox="0 0 20 24" fill="none" xmlns="http://www.w3.org/2000/svg">
<path fill-rule="evenodd" clip-rule="evenodd" d="M7.79329 2.94031C4.52416 2.94031 1.9948 5.72522 2.40028 8.87819L2.47669 9.47227C2.58848 10.3416 2.26179 11.2099 1.5994 11.804C0.226799 13.0351 -0.154548 14.9946 0.660578 16.6279L0.760081 16.8273C1.51987 18.3498 3.10776 19.3165 4.84866 19.3165H12.7634C14.265 19.3165 15.6626 18.5708 16.4689 17.3395C17.607 15.6014 17.3055 13.3211 15.7523 11.9191L15.71 11.881C14.999 11.2391 14.6489 10.3041 14.7693 9.36821L14.8315 8.88447C15.2374 5.72817 12.7054 2.94031 9.4328 2.94031H7.79329ZM3.83328 8.70408C3.53554 6.3889 5.39282 4.34398 7.79329 4.34398H9.4328C11.8367 4.34398 13.6967 6.39185 13.3985 8.71037L13.3363 9.1941C13.1583 10.5779 13.676 11.9605 14.7273 12.9095L14.7696 12.9476C15.8121 13.8887 16.0144 15.4192 15.2505 16.5859C14.7094 17.4123 13.7713 17.9128 12.7634 17.9128H4.84866C3.66102 17.9128 2.57776 17.2533 2.05944 16.2147L1.95993 16.0153C1.42263 14.9387 1.674 13.6471 2.57877 12.8356C3.58367 11.9342 4.07929 10.617 3.90968 9.29816L3.83328 8.70408Z" fill="black"/>
<path d="M6.52572 21.0009C6.28645 20.6908 5.83385 20.628 5.51482 20.8605C5.19579 21.0931 5.13113 21.533 5.37041 21.8431L5.65924 22.2174C7.2478 24.2761 10.4249 24.2761 12.0135 22.2174L12.3023 21.8431C12.5416 21.533 12.4769 21.0931 12.1579 20.8605C11.8389 20.628 11.3863 20.6908 11.147 21.0009L10.8582 21.3752C9.84727 22.6853 7.82546 22.6853 6.81455 21.3752L6.52572 21.0009Z" fill="black"/>
<path d="M13.8604 1.78711C11.5132 1.78711 9.61035 3.68989 9.61035 6.03711C9.61035 8.38432 11.5132 10.2871 13.8604 10.2871C16.2077 10.2871 18.1104 8.3843 18.1104 6.03711C18.1104 3.68991 16.2077 1.78711 13.8604 1.78711Z" fill="#8BC240" stroke="white" stroke-width="2"/>
</svg>
